<svg xmlns="http://www.w3.org/2000/svg" fill="none" viewBox="0 0 35 33">
	<g stroke-linecap="round" stroke-linejoin="round" stroke-width=".25">
		<path fill="#e17726" stroke="#e17726" d="M32.96 1l-13.14 9.72 2.45-5.73z" />
		<g fill="#e27625" stroke="#e27625">
			<path d="M2.66 1l13.02 9.8L13.35 5zm25.57 22.53l-3.5 5.34 7.49 2.06 2.14-7.28zm-26.96.12l2.13 7.28 7.47-2.06-3.48-5.34z" />
			<path d="M10.47 14.51L8.4 17.65l7.4.34-.24-7.97zm14.68 0L20 9.93l-.17 8.06 7.4-.34zM10.87 28.87l4.49-2.16-3.86-3zm9.4-2.17l4.46 2.17-.6-5.17z" />
		</g>
		<path fill="#d5bfb2" stroke="#d5bfb2" d="M24.73 28.87l-4.46-2.16.36 2.9-.04 1.23zm-13.86 0l4.16 1.97-.03-1.23.36-2.9z" />
		<path fill="#233447" stroke="#233447" d="M15.1 21.78l-3.7-1.08 2.62-1.2zm5.41 0l1.1-2.29 2.63 1.2z" />
		<path fill="#cc6228" stroke="#cc6228" d="M10.87 28.87l.65-5.34-4.13.12zm13.23-5.34l.63 5.34 3.5-5.22zm3.13-5.88l-7.4.34.68 3.8 1.1-2.3 2.63 1.2zM11.4 20.7l2.62-1.2 1.09 2.28.69-3.8-7.4-.33z" />
		<path fill="#e27525" stroke="#e27525" d="M8.4 17.65l3.1 6.05-.1-3zm15.84 3.05l-.12 3 3.1-6.05zm-8.44-2.71l-.7 3.8.88 4.48.2-5.91zm4.02 0l-.36 2.36.18 5.92.87-4.49z" />
		<path fill="#f5841f" stroke="#f5841f" d="M20.51 21.78l-.87 4.49.63.44 3.85-3 .12-3.01zM11.4 20.7l.1 3 3.86 3 .62-.43-.87-4.49z" />
		<path fill="#c0ac9d" stroke="#c0ac9d" d="M20.6 30.84l.03-1.23-.34-.28h-4.96l-.33.28.03 1.23-4.16-1.97 1.46 1.2 2.95 2.03h5.05l2.96-2.04 1.44-1.19z" />
		<path fill="#161616" stroke="#161616" d="M20.27 26.7l-.63-.43h-3.66l-.62.44-.36 2.9.33-.28h4.96l.34.28z" />
		<path fill="#763e1a" stroke="#763e1a" d="M33.52 11.35L34.62 6l-1.66-5-12.7 9.4 4.9 4.11 6.89 2.01 1.52-1.77-.66-.48 1.05-.96-.8-.62 1.05-.8zM1 5.99l1.12 5.36-.72.53 1.07.8-.8.63 1.04.96-.66.48 1.52 1.77 6.9-2 4.89-4.13L2.66 1z" />
		<path fill="#f5841f" stroke="#f5841f" d="M32.05 16.52l-6.9-2 2.08 3.13-3.1 6.05 4.1-.05h6.13zm-21.58-2.01l-6.9 2.01-2.3 7.13H7.4l4.1.05-3.1-6.05zm9.35 3.48l.45-7.6 2-5.4h-8.92l2 5.4.45 7.6.17 2.38v5.9h3.67l.02-5.9z" />
	</g>
</svg>
