<svg xmlns="http://www.w3.org/2000/svg" fill="none" viewBox="0 0 128 128">
    <path fill="url(#a)" d="M128 64A64 64 0 1 0 0 64a64 64 0 0 0 128 0Z" />
    <path fill="#fff" d="M42.3 46.13a31.15 31.15 0 0 1 43.4 0l1.44 1.41a1.48 1.48 0 0 1 0 2.13l-4.93 4.83a.78.78 0 0 1-1.09 0l-1.98-1.94a21.73 21.73 0 0 0-30.28 0l-2.12 2.08a.78.78 0 0 1-1.09 0l-4.93-4.83a1.48 1.48 0 0 1 0-2.13l1.58-1.55Zm53.6 10 4.4 4.3a1.48 1.48 0 0 1 0 2.12L80.5 81.93a1.56 1.56 0 0 1-2.18 0L64.27 68.17a.39.39 0 0 0-.54 0L49.68 81.93a1.56 1.56 0 0 1-2.17 0L27.7 62.54a1.48 1.48 0 0 1 0-2.12l4.39-4.3a1.56 1.56 0 0 1 2.17 0l14.05 13.76c.15.15.4.15.54 0L62.9 56.12a1.56 1.56 0 0 1 2.17 0l14.06 13.76c.14.15.39.15.54 0l14.05-13.76a1.56 1.56 0 0 1 2.17 0Z" />
    <defs>
        <radialGradient id="a" cx="0" cy="0" r="1" gradientTransform="matrix(128 0 0 128 0 64)" gradientUnits="userSpaceOnUse">
            <stop stop-color="#5D9DF6" />
            <stop offset="1" stop-color="#006FFF" />
        </radialGradient>
    </defs>
</svg>